<?xml version="1.0" standalone="no"?>
<!DOCTYPE svg PUBLIC "-//W3C//DTD SVG 20010904//EN"
 "http://www.w3.org/TR/2001/REC-SVG-20010904/DTD/svg10.dtd">
<svg version="1.0" xmlns="http://www.w3.org/2000/svg"
 width="399.000000pt" height="399.000000pt" viewBox="0 0 399.000000 399.000000"
 preserveAspectRatio="xMidYMid meet">
<metadata>
Created by potrace 1.14, written by Peter Selinger 2001-2017
</metadata>
<g transform="translate(0.000000,399.000000) scale(0.100000,-0.100000)"
fill="#000000" stroke="none">
<path d="M1976 3983 c-3 -4 -17 -8 -29 -10 -18 -2 -58 -12 -77 -18 -3 -1 -18
-8 -35 -15 -16 -7 -33 -13 -37 -12 -5 1 -8 -2 -8 -8 0 -5 -7 -10 -15 -10 -7 0
-18 -6 -22 -13 -4 -6 -25 -26 -45 -44 -20 -17 -34 -34 -31 -37 4 -3 1 -6 -5
-6 -7 0 -28 -17 -47 -37 -19 -20 -35 -34 -35 -30 0 4 -15 -9 -32 -30 -52 -59
-66 -72 -72 -66 -3 4 -6 -1 -6 -11 0 -9 -4 -14 -10 -11 -5 3 -10 0 -10 -8 0
-7 -11 -20 -25 -27 -13 -7 -23 -16 -22 -19 2 -3 -14 -22 -35 -42 -21 -21 -38
-36 -38 -35 0 1 -112 -110 -250 -247 -138 -137 -250 -253 -250 -259 0 -5 -3
-8 -7 -6 -7 4 -184 -170 -190 -186 -2 -3 -6 -7 -10 -8 -13 -4 -53 -50 -53 -61
0 -6 -3 -8 -6 -5 -3 4 -22 -12 -42 -35 -54 -61 -82 -89 -82 -82 0 4 -7 0 -15
-9 -8 -8 -15 -18 -15 -21 0 -9 -73 -74 -83 -75 -5 0 -6 -3 -4 -7 2 -5 -15 -24
-39 -43 -23 -19 -46 -43 -49 -53 -4 -9 -9 -16 -13 -14 -4 2 -37 -27 -74 -65
-37 -37 -64 -68 -61 -68 3 0 -4 -9 -17 -20 -13 -11 -20 -20 -16 -20 3 0 -1
-15 -11 -32 -9 -18 -16 -36 -15 -40 1 -5 -3 -8 -9 -8 -5 0 -7 -5 -4 -10 4 -6
1 -17 -5 -25 -7 -8 -10 -24 -7 -35 3 -11 2 -20 -1 -20 -4 0 -8 -20 -8 -45 -1
-25 2 -42 7 -39 5 3 9 1 9 -5 0 -5 -6 -11 -12 -14 -10 -3 -10 -7 -1 -18 6 -8
11 -16 11 -19 1 -8 22 -63 38 -94 8 -16 14 -32 14 -36 0 -9 190 -200 191 -192
0 4 4 -3 9 -15 5 -13 16 -23 25 -23 8 0 15 -6 15 -14 0 -8 9 -18 20 -21 11 -3
20 -13 20 -21 0 -8 3 -14 8 -14 4 0 23 -16 42 -35 19 -20 48 -48 64 -63 27
-26 37 -35 62 -64 7 -7 51 -50 98 -96 47 -46 86 -87 86 -92 0 -5 9 -11 19 -15
11 -3 23 -15 26 -26 4 -10 10 -19 14 -19 4 0 42 -34 84 -75 42 -41 75 -75 72
-75 -2 0 19 -21 47 -48 87 -80 198 -195 198 -204 0 -4 3 -7 8 -6 9 4 227 -215
224 -224 -1 -5 4 -7 11 -5 6 1 11 -4 10 -11 -2 -6 1 -12 5 -12 11 0 81 -67 76
-72 -2 -3 7 -11 21 -18 13 -7 27 -21 31 -32 3 -10 11 -18 17 -18 7 -1 26 -19
42 -40 17 -21 35 -39 40 -40 6 0 21 -16 35 -34 14 -19 28 -32 33 -29 4 2 7 0
7 -4 0 -10 88 -68 102 -68 5 0 12 -4 16 -10 4 -5 18 -12 32 -13 14 -2 29 -8
34 -13 6 -5 43 -9 83 -9 55 0 80 5 105 20 18 11 39 20 47 20 8 0 22 6 30 14 9
8 23 16 30 18 8 2 25 12 38 23 39 34 192 185 193 190 0 3 2 5 5 5 9 1 115 113
115 122 0 5 4 7 8 4 5 -3 14 5 21 17 7 12 27 33 44 46 18 13 50 45 72 72 22
26 43 45 47 43 5 -3 8 2 8 10 0 9 5 16 10 16 10 0 50 36 50 45 0 3 3 5 6 4 4
0 14 11 24 26 10 15 20 26 24 26 3 -1 5 0 4 2 -1 1 22 25 52 52 84 78 89 83
83 89 -4 3 1 6 10 6 10 0 17 7 17 15 0 8 6 15 14 15 8 0 18 9 21 20 3 11 10
20 14 20 4 0 44 36 88 80 44 44 78 80 75 80 -2 0 8 10 24 22 38 30 84 80 84
92 0 5 3 7 6 4 3 -4 23 11 43 33 21 21 41 35 45 31 4 -4 6 -2 4 4 -4 12 101
120 114 116 4 -1 7 2 6 6 -4 10 268 283 275 276 3 -3 4 3 3 13 0 10 5 17 12
15 6 -1 12 2 12 8 0 9 19 36 48 66 7 8 10 14 7 14 -4 0 3 16 15 35 12 19 18
35 13 35 -4 0 -1 5 7 10 23 14 27 177 6 219 -9 17 -13 31 -9 31 5 0 3 4 -2 8
-6 4 -21 28 -34 54 -13 26 -28 45 -32 42 -5 -3 -9 1 -9 8 0 7 -21 33 -45 57
-25 25 -45 49 -45 53 0 4 -6 8 -13 8 -8 0 -20 10 -27 23 -7 12 -52 58 -100
102 -48 44 -88 85 -89 92 0 6 -10 14 -20 18 -11 3 -23 15 -26 26 -4 10 -10 19
-14 19 -5 0 -27 18 -49 40 -22 22 -38 40 -37 40 1 0 -43 45 -98 100 -55 55
-102 100 -104 100 -1 0 -15 14 -30 30 -16 17 -33 36 -40 43 -6 6 -90 91 -187
186 -97 96 -176 179 -176 185 0 5 -2 7 -5 4 -6 -6 -248 235 -253 252 -2 6 -7
10 -10 10 -4 0 -70 60 -146 134 -140 135 -228 196 -280 196 -15 0 -26 4 -26 8
0 5 -18 8 -39 8 -22 -1 -37 2 -35 6 6 10 -10 11 -20 1z m92 -106 c6 0 12 -4
12 -9 0 -4 3 -7 8 -6 4 2 25 -8 47 -21 22 -14 43 -24 48 -23 4 1 7 -4 7 -10 1
-7 19 -26 40 -43 21 -16 39 -33 40 -36 0 -11 119 -126 125 -121 3 3 5 1 5 -5
0 -12 260 -275 261 -265 0 4 4 -3 9 -15 5 -13 16 -23 25 -23 8 0 15 -4 15 -9
0 -5 14 -23 31 -40 17 -17 35 -31 40 -31 5 0 9 -6 9 -14 0 -8 9 -18 21 -21 11
-4 18 -9 15 -12 -5 -5 98 -105 115 -111 5 -2 9 -10 9 -18 0 -8 6 -14 13 -14 8
0 20 -11 27 -25 7 -14 16 -25 20 -25 10 0 150 -141 150 -151 0 -5 4 -9 9 -9 6
0 22 -11 37 -25 15 -14 24 -25 21 -25 -3 0 9 -15 26 -33 18 -18 35 -32 38 -30
3 1 12 -9 19 -22 7 -14 17 -25 22 -25 10 0 68 -60 68 -71 0 -5 6 -9 13 -9 14
0 53 -41 49 -52 -1 -5 2 -8 8 -8 12 0 156 -142 153 -151 -1 -3 8 -12 20 -18
12 -7 33 -28 47 -46 14 -19 32 -37 41 -40 9 -3 22 -16 29 -30 7 -13 17 -22 22
-19 4 3 8 1 8 -3 0 -5 15 -25 33 -44 18 -19 32 -40 30 -46 -2 -6 1 -14 6 -18
6 -3 11 -15 11 -26 0 -10 6 -19 13 -20 9 0 9 -2 -1 -6 -6 -2 -9 -10 -5 -16 11
-18 11 -91 0 -104 -5 -7 -7 -13 -3 -13 12 0 -46 -95 -75 -122 -16 -16 -27 -28
-24 -28 5 0 -328 -333 -387 -386 -26 -23 -44 -45 -41 -48 4 -3 2 -6 -4 -6 -13
0 -63 -46 -57 -53 3 -3 -3 -8 -13 -12 -10 -3 -34 -26 -53 -50 -19 -24 -39 -44
-43 -44 -10 -1 -21 -12 -60 -59 -15 -19 -27 -31 -27 -29 0 3 -15 -9 -33 -26
-18 -18 -31 -35 -29 -39 2 -5 -1 -8 -6 -8 -13 0 -62 -47 -56 -53 3 -3 -4 -8
-15 -12 -12 -3 -20 -9 -18 -13 1 -4 -12 -21 -30 -39 -18 -17 -33 -29 -33 -27
0 3 -11 -7 -25 -22 -14 -15 -25 -31 -25 -36 0 -5 -3 -8 -7 -6 -8 4 -73 -59
-67 -64 1 -2 -9 -12 -24 -23 -15 -10 -53 -47 -84 -81 -32 -35 -58 -62 -58 -60
0 4 -58 -54 -96 -96 -69 -75 -338 -328 -348 -328 -7 0 -19 -7 -26 -15 -7 -8
-16 -13 -20 -10 -5 3 -11 1 -15 -5 -4 -6 -11 -8 -16 -5 -5 4 -9 2 -9 -2 0 -5
-9 -9 -20 -9 -11 0 -20 4 -20 9 0 5 -6 5 -12 -1 -22 -17 -143 26 -183 65 -19
19 -35 30 -35 26 0 -4 -5 -1 -10 7 -9 14 -261 270 -266 270 -6 0 -224 225
-224 232 0 4 -4 8 -9 8 -11 0 -221 210 -221 221 0 5 -4 9 -9 9 -12 0 -211 200
-211 212 0 4 -4 7 -9 6 -11 -4 -61 49 -53 56 3 3 0 6 -6 6 -13 0 -512 498
-512 511 0 5 -6 9 -13 9 -8 0 -20 11 -27 25 -7 14 -19 25 -25 25 -7 0 -20 16
-31 35 -10 19 -21 35 -24 35 -6 0 -9 15 -12 80 -2 25 -7 48 -13 53 -7 5 -7 10
0 15 6 4 10 16 10 27 -1 40 55 131 113 188 33 31 58 57 56 57 -1 0 12 15 29
32 18 18 35 31 39 30 5 -1 8 5 8 13 0 8 7 15 16 15 9 0 18 9 21 20 3 11 8 18
12 17 8 -5 90 81 83 88 -3 3 -1 5 5 5 9 0 187 172 184 178 0 1 1 2 3 3 7 0 85
79 107 107 10 14 19 22 19 20 0 -3 25 19 55 49 30 30 55 59 55 64 0 6 4 8 8 5
5 -3 15 6 22 19 7 14 17 25 22 25 12 0 47 38 40 44 -3 3 -1 6 5 6 14 0 143
128 143 142 0 6 2 9 5 6 3 -3 32 21 64 53 32 32 62 55 66 51 3 -4 5 -2 3 4 -3
11 127 144 142 144 5 0 6 7 3 17 -4 10 -2 14 5 9 6 -3 16 3 22 14 6 11 15 18
21 15 5 -4 8 -3 7 2 -1 4 34 45 79 90 45 45 78 84 75 87 -3 3 1 6 8 6 15 0 60
46 52 54 -3 3 0 6 6 6 6 0 34 25 63 55 29 31 63 58 76 61 12 4 23 11 23 16 0
6 7 8 15 4 8 -3 15 0 15 5 0 6 9 9 20 6 11 -3 20 -2 20 3 0 4 24 6 53 3 28 -3
58 -5 65 -6z"/>
<path d="M1943 3555 c-34 -15 -46 -38 -15 -30 9 3 0 -3 -21 -13 -20 -10 -34
-22 -30 -25 3 -4 1 -7 -5 -7 -7 0 -12 -17 -12 -44 0 -105 118 -179 210 -131
66 34 104 132 65 165 -8 7 -13 16 -10 20 8 13 -28 52 -61 66 -42 18 -80 17
-121 -1z m172 -55 c3 -5 1 -10 -4 -10 -6 0 -11 5 -11 10 0 6 2 10 4 10 3 0 8
-4 11 -10z"/>
<path d="M1704 2450 c-28 -11 -36 -45 -15 -67 14 -16 33 -18 146 -17 132 2
159 -1 149 -17 -3 -5 -1 -9 4 -9 10 0 7 -252 -3 -277 -2 -7 -1 -13 3 -13 4 0
6 -21 4 -47 -8 -154 -7 -335 1 -340 6 -3 25 -6 44 -7 39 -1 46 12 44 83 -7
237 -4 614 4 621 5 4 62 8 125 8 201 0 187 -2 186 30 -2 49 -10 53 -99 47
-150 -9 -559 -5 -567 6 -3 4 -15 3 -26 -1z"/>
<path d="M875 2429 c-27 -10 -58 -18 -67 -19 -10 0 -18 -4 -18 -8 0 -5 -7 -9
-15 -10 -8 -1 -22 -3 -30 -4 -8 -1 -15 -5 -15 -10 0 -5 -4 -7 -9 -3 -6 3 -14
-2 -19 -11 -5 -9 -13 -16 -18 -16 -18 -1 -54 -21 -54 -30 0 -5 -4 -7 -9 -4
-11 7 -101 -78 -101 -94 0 -6 -4 -9 -9 -5 -5 3 -12 -4 -16 -15 -3 -11 -12 -26
-18 -33 -19 -21 -37 -56 -37 -72 0 -9 -4 -14 -8 -11 -10 6 -16 -48 -16 -129 0
-59 21 -122 51 -155 57 -63 72 -77 77 -72 3 3 6 -2 6 -11 0 -10 8 -17 20 -17
11 0 20 -4 20 -8 0 -10 61 -33 71 -26 5 3 9 1 9 -5 0 -6 7 -8 15 -5 8 4 15 2
15 -3 0 -10 10 -12 103 -15 37 -2 67 -7 67 -13 0 -7 3 -7 8 0 4 6 38 11 77 11
67 0 70 1 80 28 8 23 6 30 -10 39 -16 9 -69 14 -77 7 -8 -6 -80 -5 -84 1 -3 5
-15 4 -28 -1 -13 -5 -26 -7 -28 -5 -2 2 -19 7 -38 10 -19 3 -51 11 -70 17 -19
7 -37 12 -40 13 -10 1 -93 65 -85 65 5 0 0 6 -11 14 -10 8 -19 18 -19 23 -1 4
-8 22 -17 38 -18 34 -21 152 -5 173 5 6 6 12 1 12 -5 0 -4 4 3 8 6 4 13 16 15
27 1 11 11 27 20 36 10 9 15 18 13 21 -9 8 70 81 98 91 9 4 17 11 17 17 0 5 9
10 20 10 11 0 20 4 20 9 0 9 40 27 49 22 2 -2 7 3 11 9 4 7 19 13 34 13 14 0
26 4 26 9 0 6 7 8 15 5 8 -4 17 -2 19 2 3 5 20 11 38 15 17 3 39 13 49 22 18
16 15 53 -5 55 -6 0 -18 2 -26 3 -8 2 -37 -5 -65 -15z"/>
<path d="M1319 2289 c-13 -13 -18 -27 -14 -39 3 -11 1 -28 -4 -39 -6 -11 -8
-22 -4 -24 5 -3 8 -153 8 -335 0 -207 4 -333 10 -338 13 -12 61 -11 72 0 4 5
1 6 -7 2 -13 -6 -13 -6 0 6 11 9 15 30 15 63 -1 28 3 53 9 57 7 5 7 8 1 8 -12
0 -13 160 -1 178 4 7 4 12 -1 12 -4 0 -8 38 -8 85 0 47 3 85 7 85 4 0 3 12 -1
28 -8 32 -7 64 4 82 6 9 4 11 -4 5 -10 -6 -11 -3 -2 14 7 11 8 21 4 21 -4 0
-8 22 -8 50 0 27 4 50 8 50 12 0 -26 36 -46 43 -11 4 -25 -1 -38 -14z"/>
<path d="M2745 2280 c-4 -6 -10 -8 -15 -5 -4 2 -10 -7 -13 -22 -4 -20 3 -34
29 -61 19 -19 34 -32 34 -29 0 3 11 -5 25 -19 14 -14 25 -29 25 -34 0 -6 6
-10 13 -10 15 -1 67 -68 67 -87 0 -7 4 -13 9 -13 5 0 17 -22 27 -50 10 -27 23
-50 28 -50 6 0 4 -5 -4 -10 -9 -6 -10 -10 -3 -10 6 0 10 -9 8 -20 -2 -11 0
-20 6 -20 5 0 9 -15 9 -33 0 -19 3 -37 7 -41 11 -11 9 -80 -2 -89 -7 -6 -7
-10 0 -13 10 -4 10 -86 0 -111 -2 -7 0 -13 6 -13 6 0 7 -5 4 -10 -3 -6 -4 -19
0 -30 5 -15 14 -18 41 -16 38 3 69 33 53 53 -6 6 -11 58 -13 115 -2 92 0 119
20 193 3 11 7 31 8 44 2 13 9 27 16 31 6 4 11 10 11 14 -2 14 27 72 42 85 10
7 17 17 17 22 0 16 130 135 150 137 11 2 75 31 67 32 -4 0 -3 9 3 20 15 28
-10 52 -47 47 -34 -4 -83 -27 -83 -38 0 -4 -8 -10 -17 -13 -34 -11 -158 -143
-153 -162 1 -4 -5 -11 -14 -16 -9 -5 -16 -16 -16 -23 0 -8 -5 -15 -10 -15 -6
0 -9 -3 -8 -7 0 -5 -2 -16 -6 -25 -7 -15 -10 -15 -22 -3 -8 7 -14 18 -14 24 0
6 -4 11 -9 11 -5 0 -11 8 -14 18 -29 91 -237 292 -262 252z"/>
</g>
</svg>
